<svg width="48" height="48" viewBox="0 0 48 48" fill="none" xmlns="http://www.w3.org/2000/svg">
<path d="M34.8621 36.3105H33.4138V37.7588H34.8621V36.3105Z" fill="#E4EAF6"/>
<path d="M21.8275 36.3105H20.3793V37.7588H21.8275V36.3105Z" fill="#E4EAF6"/>
<path d="M32.1478 31.387C32.1269 31.3392 32.1075 31.2907 32.0901 31.2412H31.9607C32.0239 31.2888 32.0862 31.3375 32.1478 31.387Z" fill="#E4EAF6"/>
<path d="M21.1034 29.793C20.7043 29.793 20.3793 30.1176 20.3793 30.5171C20.3793 30.9167 20.7042 31.2413 21.1034 31.2413C21.5027 31.2413 21.8276 30.9167 21.8276 30.5171C21.8275 30.1176 21.5026 29.793 21.1034 29.793Z" fill="#E4EAF6"/>
<path d="M23.1513 31.2412C23.1337 31.2906 23.1145 31.3392 23.0935 31.3868C23.155 31.3373 23.2174 31.2887 23.2805 31.2412H23.1513Z" fill="#E4EAF6"/>
<path d="M34.862 30.5171C34.862 30.1176 34.5371 29.793 34.1379 29.793C33.7386 29.793 33.4137 30.1176 33.4137 30.5171C33.4137 30.9167 33.7386 31.2413 34.1379 31.2413C34.5371 31.2413 34.862 30.9167 34.862 30.5171Z" fill="#E4EAF6"/>
<path d="M36.3103 11.6897C35.1105 11.6897 34.1379 10.717 34.1379 9.51722V3H14.5861C13.3863 3 12.4137 3.97264 12.4137 5.17243V10.2414H30.5172C31.3171 10.2414 31.9654 10.8898 31.9654 11.6897V21.8276C31.9654 22.6274 31.3171 23.2758 30.5172 23.2758H12.4137V42.8276C12.4137 44.0274 13.3863 45 14.5861 45H40.6551C41.8549 45 42.8275 44.0274 42.8275 42.8276V11.6897H36.3103Z" fill="#E4EAF6"/>
<path d="M36.3104 11.6897H42.8276L34.1379 3V9.51722C34.1379 10.717 35.1106 11.6897 36.3104 11.6897Z" fill="#D2DCF0"/>
<path d="M31.9655 21.8274V11.6895C31.9655 10.8897 31.3172 10.2412 30.5173 10.2412H12.4138H6.62075C5.82086 10.2412 5.17249 10.8897 5.17249 11.6895V21.8274C5.17249 22.6272 5.82086 23.2756 6.62075 23.2756H12.4139H30.5174C31.3172 23.2756 31.9655 22.6272 31.9655 21.8274Z" fill="#D95845"/>
<path fill-rule="evenodd" clip-rule="evenodd" d="M15.6 13.8499C15.6 13.4633 15.9134 13.1499 16.3 13.1499H18.281C20.2797 13.1499 21.9 14.7702 21.9 16.7689C21.9 18.7676 20.2797 20.3879 18.281 20.3879H16.3C15.9134 20.3879 15.6 20.0745 15.6 19.6879V13.8499ZM17 14.5499V18.9879H18.281C19.5065 18.9879 20.5 17.9944 20.5 16.7689C20.5 15.5434 19.5065 14.5499 18.281 14.5499H17Z" fill="white"/>
<path d="M12.2328 13.1499H8.97417C8.57427 13.1499 8.25 13.4738 8.25 13.8741V19.6672C8.25 20.0674 8.57427 20.3914 8.97417 20.3914C9.37407 20.3914 9.69834 20.0675 9.69834 19.6672V18.2189H12.2329C13.6303 18.2189 14.7674 17.0817 14.7674 15.6844C14.7674 14.2871 13.6302 13.1499 12.2328 13.1499ZM12.2328 16.7706H9.69826V14.5982H12.2328C12.8318 14.5982 13.319 15.0854 13.319 15.6843C13.319 16.2832 12.8317 16.7706 12.2328 16.7706Z" fill="white"/>
<path fill-rule="evenodd" clip-rule="evenodd" d="M23.3 14.3499C23.3 13.6872 23.8373 13.1499 24.5 13.1499H28.2C28.5866 13.1499 28.9 13.4633 28.9 13.8499C28.9 14.2365 28.5866 14.5499 28.2 14.5499H24.7V16.0689H27.36C27.7466 16.0689 28.06 16.3823 28.06 16.7689C28.06 17.1555 27.7466 17.4689 27.36 17.4689H24.7V19.6879C24.7 20.0745 24.3866 20.3879 24 20.3879C23.6134 20.3879 23.3 20.0745 23.3 19.6879V14.3499Z" fill="white"/>
<path d="M28.4848 31.8506C28.4388 32.0008 28.3916 32.149 28.3436 32.296C28.7046 32.9632 29.1585 33.5429 29.6959 34.0397C31.0555 33.8086 32.028 33.753 32.1771 33.7462H32.3797C33.4915 33.7462 34.396 34.6507 34.396 35.7625C34.396 36.8929 33.5282 37.7783 32.4202 37.7783C32.1452 37.7783 31.8786 37.7347 31.631 37.6499C30.7117 37.3404 29.8723 36.9186 29.1313 36.3948C28.0375 36.6289 27.0488 36.9224 26.1847 37.2698C25.5235 38.4757 24.9188 39.3846 24.5184 39.9468C24.1771 40.4255 23.6204 40.7113 23.0298 40.7113C22.0208 40.7113 21.2 39.8904 21.2 38.8815C21.2 38.3357 21.3713 37.8817 21.7122 37.5296C22.4538 36.7727 23.4245 36.1099 24.5997 35.557C25.1378 34.5108 25.6046 33.4477 25.9893 32.389C25.2409 30.5575 25.2319 28.9982 25.2319 28.9819C25.2319 27.9702 26.0522 27.1499 27.0639 27.1499C28.0756 27.1499 28.896 27.9702 28.8943 28.9811C28.8943 30.1257 28.5632 31.5355 28.4848 31.8506Z" fill="#D95845"/>
<path d="M22.6654 38.8033C22.6654 39.2457 23.1443 39.3502 23.3233 39.0938C23.5475 38.7821 23.985 38.1478 24.5018 37.2571C23.8504 37.6218 23.2532 38.0501 22.76 38.5542C22.6998 38.6158 22.6654 38.7074 22.6654 38.8033Z" fill="#E4EAF6"/>
<path d="M27.4305 28.9823C27.4305 28.7802 27.2659 28.6157 27.0639 28.6157C26.8616 28.6157 26.6975 28.7798 26.6975 28.9821C26.6975 29.0751 26.7085 30.0485 27.1163 31.2846C27.2058 30.8876 27.4305 29.8141 27.4305 28.9823Z" fill="#E4EAF6"/>
<path d="M27.2324 33.2532C26.8955 34.1413 26.5341 34.9606 26.1725 35.6978C26.9983 35.4024 27.8296 35.1782 28.5974 35.0016C28.0286 34.4487 27.5818 33.8504 27.2324 33.2532Z" fill="#E4EAF6"/>
<path d="M32.3769 35.2165H32.1936C32.1772 35.2165 31.4225 35.2603 30.3173 35.4341C30.833 35.7551 31.4225 36.0385 32.0968 36.2648C32.1949 36.299 32.3059 36.3163 32.4168 36.3163C32.6982 36.3163 32.9265 36.0871 32.9265 35.8066C32.9265 35.4626 32.6798 35.2165 32.3769 35.2165Z" fill="#E4EAF6"/>
</svg>
